<svg width="44" height="44" viewBox="0 0 44 44" fill="none" xmlns="http://www.w3.org/2000/svg">
<path d="M0 4.88889V39.1111C0 41.8 2.17556 44 4.88889 44H39.1111C41.8 44 44 41.8 44 39.1111V4.88889C44 2.2 41.8 0 39.1111 0H4.88889C2.17556 0 0 2.2 0 4.88889ZM29.3333 14.6667C29.3333 18.7244 26.0578 22 22 22C17.9422 22 14.6667 18.7244 14.6667 14.6667C14.6667 10.6089 17.9422 7.33333 22 7.33333C26.0578 7.33333 29.3333 10.6089 29.3333 14.6667ZM7.33333 34.2222C7.33333 29.3333 17.1111 26.6444 22 26.6444C26.8889 26.6444 36.6667 29.3333 36.6667 34.2222V36.6667H7.33333V34.2222Z" fill="#F6F7FF"/>
</svg>
